<?xml version="1.0" encoding="utf-8"?>
<!-- Generator: Adobe Illustrator 16.0.0, SVG Export Plug-In . SVG Version: 6.00 Build 0)  -->
<!DOCTYPE svg PUBLIC "-//W3C//DTD SVG 1.1//EN" "http://www.w3.org/Graphics/SVG/1.1/DTD/svg11.dtd">
<svg version="1.1" id="Layer_1" xmlns="http://www.w3.org/2000/svg" xmlns:xlink="http://www.w3.org/1999/xlink" x="0px" y="0px"
	 width="612px" height="792px" viewBox="0 0 612 792" enable-background="new 0 0 612 792" xml:space="preserve">
<polygon fill="#138980" points="236.902,348.106 236.898,348.106 236.897,348.115 "/>
<polygon fill="#138980" points="236.888,348.111 236.897,348.115 236.891,348.108 "/>
<polygon fill="#427B53" points="236.902,530.356 236.898,530.356 236.897,530.366 "/>
<polygon fill="#427B53" points="236.888,530.362 236.897,530.366 236.891,530.359 "/>
<g>
	<g>
		<g>
			<path fill="#C93A14" d="M161.805,491.657V203.311l-71.381-0.006v288.353l0,0c0,0.009,0.005,0.031,0.002,0.046l6.212,12.419
				l6.594,13.188H149l6.59-13.188l6.212-12.419c0-0.021,0.004-0.037,0.004-0.046H161.805z"/>
			<polygon fill="#C93A14" points="126.115,563.078 140.92,533.471 111.309,533.471 			"/>
		</g>
		<g>
			<path fill="#C93A14" d="M450.151,517.311l-288.344,0.002v71.376h288.345l-0.001,0.007c0.013,0,0.031-0.011,0.052-0.011
				l12.421-6.208l13.187-6.592l-0.004-45.766l-13.186-6.599l-12.418-6.208C450.186,517.313,450.168,517.311,450.151,517.311
				L450.151,517.311z"/>
			<polygon fill="#C93A14" points="521.576,553.005 491.965,538.195 491.965,567.806 			"/>
		</g>
	</g>
	<path fill="#C93A14" d="M345.143,407.223c-0.004,40.867-33.138,74.014-74.012,74.014c-40.877,0-74.01-33.146-74.01-74.014
		c0-40.874,33.133-74.011,74.01-74.011C312.005,333.212,345.143,366.349,345.143,407.223z"/>
</g>
</svg>
